<?xml version="1.0" encoding="utf-8"?>
<!-- Generator: Adobe Illustrator 24.2.3, SVG Export Plug-In . SVG Version: 6.00 Build 0)  -->
<svg version="1.1"
	 id="Lager_1" xmlns:cc="http://creativecommons.org/ns#" xmlns:dc="http://purl.org/dc/elements/1.1/" xmlns:inkscape="http://www.inkscape.org/namespaces/inkscape" xmlns:rdf="http://www.w3.org/1999/02/22-rdf-syntax-ns#" xmlns:sodipodi="http://sodipodi.sourceforge.net/DTD/sodipodi-0.dtd" xmlns:svg="http://www.w3.org/2000/svg"
	 xmlns="http://www.w3.org/2000/svg" xmlns:xlink="http://www.w3.org/1999/xlink" x="0px" y="0px" viewBox="0 0 100 61.9"
	 style="enable-background:new 0 0 100 61.9;" xml:space="preserve">
<g transform="translate(0,-952.36218)">
	<path d="M56.3,955.2c-1.8,0.1-3.3,1.3-3.7,3l-13,48c-0.6,2.1,0.7,4.3,2.8,4.9s4.3-0.7,4.9-2.8c0,0,0,0,0,0l13-48
		c0.6-2.1-0.6-4.3-2.7-4.9C57.2,955.2,56.8,955.2,56.3,955.2z M33,960.2c-0.9,0-1.8,0.3-2.5,0.9l-24,19c-1.7,1.4-2,3.9-0.7,5.6
		c0.2,0.2,0.4,0.5,0.7,0.7l24,19c1.7,1.5,4.2,1.3,5.6-0.4c1.5-1.7,1.3-4.2-0.4-5.6c-0.1-0.1-0.2-0.2-0.3-0.3l-20-15.8l20-15.9
		c1.8-1.3,2.1-3.8,0.8-5.6C35.5,960.8,34.3,960.2,33,960.2z M66.9,960.2c-2.2,0-4,1.8-4,4c0,1.2,0.6,2.4,1.6,3.1l20,15.9l-20,15.8
		c-1.8,1.3-2.2,3.8-1,5.6c1.3,1.8,3.8,2.2,5.6,1c0.1-0.1,0.2-0.2,0.3-0.3l24-19c1.7-1.4,2-3.9,0.7-5.6c-0.2-0.2-0.4-0.5-0.7-0.7
		l-24-19C68.7,960.5,67.8,960.2,66.9,960.2L66.9,960.2z"/>
</g>
</svg>
