<?xml version="1.0" encoding="utf-8"?>
<!-- Generator: Adobe Illustrator 24.2.3, SVG Export Plug-In . SVG Version: 6.00 Build 0)  -->
<svg version="1.1" id="Lager_1" xmlns="http://www.w3.org/2000/svg" xmlns:xlink="http://www.w3.org/1999/xlink" x="0px" y="0px"
	 viewBox="0 0 48 47.9" style="enable-background:new 0 0 48 47.9;" xml:space="preserve">
<g>
	<g>
		<g>
			<g>
				<path d="M22.4,35.4c-0.5,0-1-0.2-1.4-0.6L4.4,18.2c-0.8-0.8-0.8-2,0-2.8l11.1-11c0.7-0.7,2-0.7,2.8,0L34.9,21
					c0.8,0.8,0.8,2,0,2.8L23.7,34.9C23.4,35.2,22.9,35.4,22.4,35.4z M8.5,16.9l13.8,13.8l8.3-8.3L16.9,8.5L8.5,16.9z"/>
			</g>
			<g>
				<path d="M2.5,22.1c-0.3,0-0.5,0-0.7-0.1c-0.7-0.3-1.2-1-1.2-1.8V2.5c0-1.1,0.9-2,2-2h17.7c0.8,0,1.5,0.5,1.8,1.2
					s0.1,1.6-0.4,2.1L3.8,21.5C3.5,21.9,3,22.1,2.5,22.1z M4.4,4.4v11l11-11C15.4,4.4,4.4,4.4,4.4,4.4z"/>
			</g>
		</g>
		<g>
			<g>
				<g>
					<path d="M28.6,47.5c-1,0-1.8-0.7-1.9-1.7l-0.9-6.5c-0.1-1.1,0.6-2.1,1.7-2.2c1.1-0.1,2.1,0.6,2.2,1.7l0.9,6.5
						c0.1,1.1-0.6,2.1-1.7,2.2C28.7,47.5,28.6,47.5,28.6,47.5z"/>
				</g>
				<g>
					<path d="M45.5,30.5c-0.1,0-0.2,0-0.3,0l-6.5-0.9c-1.1-0.1-1.8-1.1-1.7-2.2s1.1-1.8,2.2-1.7l6.5,0.9c1.1,0.1,1.8,1.1,1.7,2.2
						C47.3,29.8,46.5,30.5,45.5,30.5z"/>
				</g>
			</g>
			<g>
				<path d="M41.6,43.5c-0.5,0-1-0.2-1.4-0.6l-4.6-4.6c-0.8-0.8-0.8-2,0-2.8s2-0.8,2.8,0l4.6,4.6c0.8,0.8,0.8,2,0,2.8
					C42.6,43.3,42.1,43.5,41.6,43.5z"/>
			</g>
		</g>
	</g>
	<g>
		<path d="M18.3,31.4c-0.1,0-0.2-1-0.4-1c-1.1-0.2-1.8-3.2-1.5-4.3L20,10.4c0.2-1.1,1.2-1.8,2.3-1.5c1.1,0.2,1.8,1.2,1.5,2.3
			l-3.6,18.6C20.1,30.7,19.2,31.4,18.3,31.4z"/>
	</g>
</g>
</svg>
