<?xml version="1.0" encoding="utf-8"?>
<!-- Generator: Adobe Illustrator 24.2.3, SVG Export Plug-In . SVG Version: 6.00 Build 0)  -->
<svg version="1.1" id="Lager_1" xmlns="http://www.w3.org/2000/svg" xmlns:xlink="http://www.w3.org/1999/xlink" x="0px" y="0px"
	 viewBox="0 0 48 48.3" style="enable-background:new 0 0 48 48.3;" xml:space="preserve">
<g>
	<g>
		<path d="M24,47.5C11,47.5,0.5,37,0.5,24S11,0.5,24,0.5S47.5,11,47.5,24S37,47.5,24,47.5z M24,4.4C13.2,4.4,4.4,13.2,4.4,24
			S13.2,43.6,24,43.6S43.6,34.8,43.6,24S34.8,4.4,24,4.4z"/>
	</g>
	<g>
		<g>
			<path d="M15.4,20.8c-1.1,0-2-0.9-2-2v-0.2c0-1.1,0.9-2,2-2s2,0.9,2,2v0.2C17.4,19.9,16.5,20.8,15.4,20.8z"/>
		</g>
		<g>
			<path d="M32.6,20.8c-1.1,0-2-0.9-2-2v-0.2c0-1.1,0.9-2,2-2c1.1,0,2,0.9,2,2v0.2C34.6,19.9,33.7,20.8,32.6,20.8z"/>
		</g>
	</g>
	<g>
		<path d="M24,34.9c-3.4,0-6.8-1.3-9.4-3.9c-0.8-0.8-0.8-2,0-2.8s2-0.8,2.8,0c3.7,3.7,9.6,3.7,13.3,0c0.8-0.8,2-0.8,2.8,0
			s0.8,2,0,2.8C30.8,33.6,27.4,34.9,24,34.9z"/>
	</g>
</g>
</svg>
