<?xml version="1.0" encoding="utf-8"?>
<!-- Generator: Adobe Illustrator 24.2.3, SVG Export Plug-In . SVG Version: 6.00 Build 0)  -->
<svg version="1.1" id="Lager_1" xmlns="http://www.w3.org/2000/svg" xmlns:xlink="http://www.w3.org/1999/xlink" x="0px" y="0px"
	 viewBox="0 0 48 48" style="enable-background:new 0 0 48 48;" xml:space="preserve">
<g>
	<g>
		<path d="M8.8,47.5c-0.4,0-0.8-0.1-1.2-0.4l-5.2-4c-1.2-1-1.9-2.3-1.9-3.8c0-1.4,0.8-2.8,2-3.7L7,32.2c0.3-0.2,0.4-0.4,0.5-0.6
			c0-0.2-0.1-0.4-0.4-0.6l-4.6-3.6c-1.2-1-1.9-2.3-1.9-3.8c0-1.4,0.8-2.8,2-3.7L7,16.7c0.3-0.2,0.5-0.5,0.5-0.6
			c0-0.2-0.2-0.4-0.5-0.6l-4.3-3.2c-1.3-1-2-2.3-2-3.8s0.7-2.8,2-3.8l5-3.7c0.9-0.6,2.1-0.5,2.7,0.4C11,2.2,10.8,3.4,10,4L5,7.7
			C4.7,7.9,4.5,8.2,4.5,8.4C4.5,8.5,4.7,8.8,5,9l4.3,3.2c1.3,1,2,2.3,2,3.8s-0.7,2.8-2,3.8L4.9,23c-0.3,0.2-0.4,0.4-0.5,0.6
			c0,0.2,0.1,0.4,0.4,0.6l4.6,3.6c1.2,1,1.9,2.3,1.9,3.8c0,1.4-0.8,2.8-2,3.7l-4.5,3.3c-0.3,0.2-0.5,0.4-0.5,0.6
			c0,0.2,0.1,0.4,0.4,0.6l5.2,4c0.9,0.7,1,1.9,0.3,2.7C9.9,47.2,9.4,47.5,8.8,47.5z"/>
	</g>
	<g>
		<path d="M26.8,47.5c-0.4,0-0.8-0.1-1.2-0.4l-5.2-4c-1.2-1-1.9-2.3-1.9-3.8c0-1.4,0.8-2.8,2-3.7l4.5-3.3c0.3-0.2,0.5-0.4,0.5-0.6
			s-0.1-0.4-0.4-0.6l-4.6-3.6c-1.2-1-1.9-2.3-1.9-3.8c0-1.4,0.8-2.8,2-3.7l4.4-3.2c0.3-0.2,0.5-0.5,0.5-0.6c0-0.2-0.2-0.4-0.5-0.6
			l-4.3-3.2c-1.3-1-2-2.3-2-3.8s0.7-2.8,2-3.8l5-3.7c0.9-0.6,2.1-0.5,2.7,0.4C29.1,2.2,28.9,3.4,28,4l-5,3.7
			c-0.3,0.2-0.5,0.5-0.5,0.6c0,0.2,0.2,0.4,0.4,0.6l4.3,3.2c1.3,1,2,2.3,2,3.8s-0.7,2.8-2,3.8L22.9,23c-0.3,0.2-0.5,0.4-0.5,0.6
			s0.1,0.4,0.4,0.6l4.6,3.6c1.2,1,1.9,2.3,1.9,3.8c0,1.4-0.8,2.8-2,3.7l-4.5,3.3c-0.3,0.2-0.4,0.4-0.5,0.6c0,0.2,0.1,0.4,0.4,0.6
			l5.2,4c0.9,0.7,1,1.9,0.3,2.7C28,47.2,27.4,47.5,26.8,47.5z"/>
	</g>
	<g>
		<path d="M44.9,47.5c-0.4,0-0.8-0.1-1.2-0.4l-5.2-4c-1.2-1-1.9-2.3-1.9-3.8c0-1.4,0.8-2.8,2-3.7l4.5-3.3c0.3-0.2,0.4-0.4,0.5-0.6
			c0-0.2-0.1-0.4-0.4-0.6l-4.6-3.6c-1.2-1-1.9-2.3-1.9-3.8c0-1.4,0.8-2.8,2-3.7l4.4-3.2c0.3-0.2,0.5-0.5,0.5-0.6
			c0-0.2-0.2-0.4-0.5-0.6l-4.3-3.2c-1.3-1-2-2.3-2-3.8s0.7-2.8,2-3.8l5-3.7c0.9-0.6,2.1-0.5,2.7,0.4c0.6,0.9,0.5,2.1-0.4,2.7l-5,3.7
			c-0.3,0.2-0.5,0.5-0.5,0.6c0,0.2,0.2,0.4,0.4,0.6l4.3,3.2c1.3,1,2,2.3,2,3.8s-0.7,2.8-2,3.8L41,23c-0.3,0.2-0.4,0.4-0.5,0.6
			c0,0.2,0.1,0.4,0.4,0.6l4.6,3.6c1.2,1,1.9,2.3,1.9,3.8c0,1.4-0.8,2.8-2,3.7L41,38.7c-0.3,0.2-0.5,0.4-0.5,0.6
			c0,0.2,0.1,0.4,0.4,0.6l5.2,4c0.9,0.7,1,1.9,0.3,2.7C46.1,47.2,45.5,47.5,44.9,47.5z"/>
	</g>
</g>
</svg>
